<?xml version="1.0" standalone="no"?>
<!DOCTYPE svg PUBLIC "-//W3C//DTD SVG 20010904//EN"
 "http://www.w3.org/TR/2001/REC-SVG-20010904/DTD/svg10.dtd">
<svg version="1.0" xmlns="http://www.w3.org/2000/svg"
 width="473.000000pt" height="473.000000pt" viewBox="0 0 473.000000 473.000000"
 preserveAspectRatio="xMidYMid meet">

<g transform="translate(0.000000,473.000000) scale(0.100000,-0.100000)"
fill="#000000" stroke="none">
<path fill="#FFAA00" d="M2175 4523 c-176 -15 -452 -81 -616 -148 -294 -120 -508 -262 -730
-484 -376 -377 -590 -848 -630 -1387 -45 -610 190 -1233 632 -1674 336 -335
757 -545 1236 -616 148 -23 452 -22 598 1 482 74 889 278 1226 614 134 135
213 233 307 383 356 564 429 1279 195 1907 -258 694 -873 1220 -1596 1366
-199 40 -433 54 -622 38z m-495 -1154 c33 -15 131 -106 365 -339 l320 -320
320 320 c214 214 334 327 363 341 35 17 57 20 117 17 62 -3 80 -8 117 -33 23
-17 56 -50 73 -73 25 -37 30 -55 33 -117 3 -60 0 -82 -17 -117 -14 -29 -127
-149 -341 -363 l-320 -319 324 -326 c361 -363 362 -364 354 -484 -5 -83 -43
-148 -112 -191 -44 -27 -58 -30 -125 -30 -54 0 -86 6 -111 19 -19 10 -180 163
-358 339 l-322 322 -323 -322 c-341 -342 -368 -362 -456 -363 -74 0 -122 20
-176 75 -55 54 -75 102 -75 176 1 88 21 115 363 456 l322 323 -322 322 c-176
178 -328 338 -338 357 -22 44 -30 126 -16 177 38 140 205 215 341 153z"/>
</g>
</svg>
