<?xml version="1.0" standalone="no"?>
<!DOCTYPE svg PUBLIC "-//W3C//DTD SVG 20010904//EN"
 "http://www.w3.org/TR/2001/REC-SVG-20010904/DTD/svg10.dtd">
<svg version="1.0" xmlns="http://www.w3.org/2000/svg"
 width="1200.000000pt" height="1200.000000pt" viewBox="0 0 1200.000000 1200.000000"
 preserveAspectRatio="xMidYMid meet">

<g transform="translate(0.000000,1200.000000) scale(0.100000,-0.100000)"
fill="#000000" stroke="none">
<path d="M7682 9424 c-12 -8 -22 -22 -22 -30 0 -22 45 -107 94 -178 53 -76 86
-147 86 -184 0 -34 -30 -69 -67 -78 -45 -12 -304 4 -418 25 -60 11 -153 27
-205 35 -103 16 -284 49 -505 91 -611 117 -1016 180 -1385 218 -174 17 -278
21 -550 21 -434 0 -617 -21 -920 -106 -93 -26 -275 -85 -315 -103 -16 -7 -64
-26 -105 -43 -86 -34 -130 -54 -289 -129 -369 -176 -665 -394 -1037 -767 -110
-110 -247 -257 -303 -326 -57 -69 -110 -134 -119 -145 -94 -113 -392 -561
-392 -588 0 -2 -43 -82 -96 -178 -414 -748 -617 -1286 -696 -1844 -18 -130
-15 -523 5 -655 28 -186 45 -272 76 -395 236 -927 833 -1642 1676 -2006 230
-99 576 -189 845 -219 160 -18 430 -23 555 -11 450 45 840 251 1160 612 79 89
85 97 170 224 278 416 413 938 376 1458 -25 359 -93 570 -258 802 -76 107 -86
118 -203 236 -274 274 -558 442 -865 509 -125 27 -332 27 -486 0 -374 -67
-749 -259 -1011 -516 -241 -237 -326 -421 -358 -779 -34 -371 75 -771 290
-1070 101 -139 257 -286 388 -362 66 -39 210 -99 272 -113 31 -8 121 -14 205
-14 132 -1 154 -3 185 -21 31 -19 35 -26 38 -67 3 -40 -1 -51 -28 -81 -54 -62
-176 -116 -385 -171 -177 -47 -319 -66 -488 -66 -501 0 -936 194 -1146 512
-105 157 -172 309 -221 498 -41 158 -49 235 -49 455 -1 336 55 610 191 939
136 328 386 691 612 890 365 322 820 532 1326 612 159 26 469 26 635 1 238
-36 504 -111 772 -218 130 -52 416 -188 501 -238 26 -16 97 -58 159 -95 62
-36 192 -120 289 -187 240 -165 359 -236 559 -335 255 -125 507 -202 805 -245
106 -16 510 -16 795 -1 892 49 1371 116 1778 248 104 34 271 97 342 128 17 8
75 32 130 54 261 105 539 232 640 294 169 104 305 209 305 235 0 21 -48 22
-245 6 -173 -13 -248 -14 -550 -4 -192 6 -381 15 -420 20 -38 5 -137 15 -220
21 -82 7 -184 18 -225 25 -41 8 -114 19 -161 25 -146 18 -424 77 -704 148
-200 51 -377 123 -465 187 -72 53 -81 85 -90 300 -8 189 -12 214 -62 360 -38
110 -41 182 -12 222 57 76 197 41 527 -130 89 -47 196 -99 237 -116 41 -17 89
-38 105 -46 32 -15 42 -19 275 -101 608 -214 1286 -311 1930 -275 326 18 517
64 599 143 63 60 76 114 75 303 0 137 -4 177 -28 280 -50 221 -93 355 -170
520 -316 686 -855 1105 -1701 1320 -235 60 -627 132 -815 150 -36 3 -114 12
-175 20 -60 8 -231 24 -380 35 -148 12 -340 32 -426 46 -184 28 -207 29 -237
8z"/>
<path d="M6563 4159 c-18 -5 -48 -25 -66 -43 -108 -108 -35 -310 112 -310 94
0 164 76 165 179 1 118 -105 206 -211 174z"/>
<path d="M6960 3380 l0 -760 140 0 140 0 0 760 0 760 -140 0 -140 0 0 -760z"/>
<path d="M5540 3360 l0 -740 140 0 140 0 0 335 0 335 230 0 230 0 0 135 0 135
-230 0 -230 0 0 135 0 135 230 0 230 0 0 135 0 135 -370 0 -370 0 0 -740z"/>
<path d="M8015 3730 c-78 -14 -132 -38 -201 -91 l-64 -50 0 61 0 60 -140 0
-140 0 0 -545 0 -545 139 0 140 0 3 338 c3 330 4 338 27 389 24 55 84 117 127
133 14 6 49 10 78 10 89 0 154 -60 175 -161 7 -30 11 -182 11 -379 l0 -330
139 0 140 0 4 338 c4 370 6 383 65 453 48 55 98 79 170 79 75 0 118 -26 152
-95 l25 -50 3 -362 3 -363 140 0 139 0 0 338 c0 486 -12 568 -96 661 -146 162
-423 154 -587 -18 l-56 -59 -38 52 c-82 110 -216 161 -358 136z"/>
<path d="M9844 3730 c-117 -17 -201 -59 -293 -145 -118 -112 -174 -249 -174
-425 0 -168 50 -297 158 -405 111 -111 237 -159 415 -158 179 1 303 48 411
156 33 32 59 62 59 66 0 5 -48 31 -107 58 l-108 51 -35 -28 c-81 -63 -117 -75
-230 -75 -98 0 -109 2 -158 29 -76 42 -132 118 -147 199 l-7 37 442 0 443 0
-7 88 c-13 167 -64 295 -154 386 -94 97 -198 148 -335 166 -81 11 -101 11
-173 0z m236 -248 c25 -13 56 -34 69 -45 29 -27 81 -106 81 -124 0 -10 -59
-13 -295 -13 -162 0 -295 2 -295 5 0 4 7 20 16 38 62 120 150 169 294 165 66
-2 95 -8 130 -26z"/>
<path d="M10962 3729 c-108 -18 -214 -96 -254 -187 -14 -31 -21 -69 -22 -112
-1 -138 79 -234 284 -340 148 -77 190 -113 190 -163 0 -110 -183 -118 -308
-12 l-33 28 -40 -39 c-23 -21 -59 -61 -81 -87 l-41 -48 34 -36 c104 -107 257
-157 412 -133 139 21 234 88 285 198 47 103 31 241 -38 330 -36 44 -120 102
-235 159 -143 72 -175 96 -175 133 0 52 45 77 126 67 42 -4 78 -24 147 -79
l27 -22 80 79 c44 44 80 85 80 91 0 19 -95 101 -150 129 -53 27 -165 55 -210
54 -14 -1 -49 -5 -78 -10z"/>
<path d="M6470 3165 l0 -545 140 0 140 0 0 545 0 545 -140 0 -140 0 0 -545z"/>
</g>
</svg>
