<?xml version="1.0" standalone="no"?>
<!DOCTYPE svg PUBLIC "-//W3C//DTD SVG 20010904//EN"
 "http://www.w3.org/TR/2001/REC-SVG-20010904/DTD/svg10.dtd">
<svg version="1.0" xmlns="http://www.w3.org/2000/svg"
 width="3600.000000pt" height="1200.000000pt" viewBox="0 0 3600.000000 1200.000000"
 preserveAspectRatio="xMidYMid meet">

<g transform="translate(0.000000,1200.000000) scale(0.100000,-0.100000)"
fill="#000000" stroke="none">
<path fill="#D58E00" d="M7682 9424 c-12 -8 -22 -22 -22 -30 0 -22 45 -107 94 -178 53 -76 86
-147 86 -184 0 -34 -30 -69 -67 -78 -45 -12 -304 4 -418 25 -60 11 -153 27
-205 35 -103 16 -284 49 -505 91 -611 117 -1016 180 -1385 218 -174 17 -278
21 -550 21 -434 0 -617 -21 -920 -106 -93 -26 -275 -85 -315 -103 -16 -7 -64
-26 -105 -43 -86 -34 -130 -54 -289 -129 -369 -176 -665 -394 -1037 -767 -110
-110 -247 -257 -303 -326 -57 -69 -110 -134 -119 -145 -94 -113 -392 -561
-392 -588 0 -2 -43 -82 -96 -178 -414 -748 -617 -1286 -696 -1844 -18 -130
-15 -523 5 -655 28 -186 45 -272 76 -395 236 -927 833 -1642 1676 -2006 230
-99 576 -189 845 -219 160 -18 430 -23 555 -11 450 45 840 251 1160 612 79 89
85 97 170 224 278 416 413 938 376 1458 -25 359 -93 570 -258 802 -76 107 -86
118 -203 236 -274 274 -558 442 -865 509 -125 27 -332 27 -486 0 -374 -67
-749 -259 -1011 -516 -241 -237 -326 -421 -358 -779 -34 -371 75 -771 290
-1070 101 -139 257 -286 388 -362 66 -39 210 -99 272 -113 31 -8 121 -14 205
-14 132 -1 154 -3 185 -21 31 -19 35 -26 38 -67 3 -40 -1 -51 -28 -81 -54 -62
-176 -116 -385 -171 -177 -47 -319 -66 -488 -66 -501 0 -936 194 -1146 512
-105 157 -172 309 -221 498 -41 158 -49 235 -49 455 -1 336 55 610 191 939
136 328 386 691 612 890 365 322 820 532 1326 612 159 26 469 26 635 1 238
-36 504 -111 772 -218 130 -52 416 -188 501 -238 26 -16 97 -58 159 -95 62
-36 192 -120 289 -187 240 -165 359 -236 559 -335 255 -125 507 -202 805 -245
106 -16 510 -16 795 -1 892 49 1371 116 1778 248 104 34 271 97 342 128 17 8
75 32 130 54 261 105 539 232 640 294 169 104 305 209 305 235 0 21 -48 22
-245 6 -173 -13 -248 -14 -550 -4 -192 6 -381 15 -420 20 -38 5 -137 15 -220
21 -82 7 -184 18 -225 25 -41 8 -114 19 -161 25 -146 18 -424 77 -704 148
-200 51 -377 123 -465 187 -72 53 -81 85 -90 300 -8 189 -12 214 -62 360 -38
110 -41 182 -12 222 57 76 197 41 527 -130 89 -47 196 -99 237 -116 41 -17 89
-38 105 -46 32 -15 42 -19 275 -101 608 -214 1286 -311 1930 -275 326 18 517
64 599 143 63 60 76 114 75 303 0 137 -4 177 -28 280 -50 221 -93 355 -170
520 -316 686 -855 1105 -1701 1320 -235 60 -627 132 -815 150 -36 3 -114 12
-175 20 -60 8 -231 24 -380 35 -148 12 -340 32 -426 46 -184 28 -207 29 -237
8z"/>
<path fill="#D58E00" d="M16094 8631 c-241 -65 -432 -260 -495 -501 -18 -72 -21 -102 -16
-205 6 -136 28 -225 78 -313 69 -123 162 -219 277 -287 97 -56 171 -76 307
-82 143 -6 207 7 333 67 68 32 100 56 171 127 95 96 147 178 184 290 30 92 32
325 3 418 -69 222 -235 396 -451 472 -99 35 -288 42 -391 14z"/>
<path fill="#D58E00" d="M17690 5515 l0 -3035 550 0 550 0 0 3035 0 3035 -550 0 -550 0 0
-3035z"/>
<path fill="#D58E00" d="M12000 5445 l0 -2965 560 0 560 0 0 1335 0 1335 910 0 910 0 0 545 0
545 -910 0 -910 0 0 540 0 540 910 0 910 0 0 545 0 545 -1470 0 -1470 0 0
-2965z"/>
<path fill="#D58E00" d="M21950 6941 c-266 -46 -486 -133 -700 -274 -103 -68 -158 -114 -277
-231 l-103 -100 0 262 0 262 -550 0 -550 0 0 -2190 0 -2190 549 0 549 0 5
1123 c5 1150 7 1218 48 1467 66 404 277 699 589 822 211 83 460 78 646 -13
204 -101 352 -341 398 -649 33 -215 36 -344 36 -1542 l0 -1208 550 0 550 0 0
933 c1 1274 12 1556 75 1803 96 380 358 646 707 719 121 25 309 16 422 -19
209 -66 351 -225 421 -471 71 -249 75 -335 75 -1732 l0 -1233 550 0 551 0 -4
1518 c-3 1654 -1 1601 -61 1893 -59 283 -171 490 -366 675 -197 186 -430 305
-718 366 -146 31 -490 33 -652 4 -289 -51 -577 -184 -793 -365 -107 -89 -238
-228 -307 -324 -30 -42 -57 -76 -60 -76 -3 -1 -23 32 -45 72 -195 351 -534
604 -925 689 -137 30 -461 34 -610 9z"/>
<path fill="#D58E00" d="M29250 6941 c-545 -76 -989 -314 -1356 -726 -377 -424 -564 -943
-564 -1570 0 -663 210 -1193 647 -1630 361 -361 792 -563 1343 -630 209 -26
601 -17 820 19 484 79 866 265 1189 580 106 103 296 335 284 347 -11 11 -899
429 -911 429 -6 0 -34 -21 -64 -48 -195 -174 -421 -289 -677 -344 -93 -20
-132 -23 -331 -22 -217 1 -230 2 -350 32 -229 57 -394 146 -553 301 -150 145
-259 340 -316 565 l-29 116 1769 0 1769 0 0 218 c0 320 -36 571 -120 842 -235
754 -841 1311 -1610 1480 -274 61 -672 78 -940 41z m699 -951 c384 -87 709
-351 840 -683 17 -43 31 -80 31 -82 0 -3 -536 -5 -1190 -5 l-1190 0 45 89 c86
173 199 328 302 417 161 139 426 253 663 284 115 15 393 4 499 -20z"/>
<path fill="#D58E00" d="M33811 6949 c-112 -15 -288 -63 -390 -107 -180 -78 -298 -160 -443
-310 -159 -164 -254 -330 -310 -538 -20 -79 -23 -111 -23 -279 1 -176 3 -197
29 -290 91 -327 304 -596 671 -847 131 -89 247 -153 572 -318 286 -144 403
-218 498 -314 89 -91 118 -148 123 -244 4 -62 1 -80 -22 -126 -50 -101 -170
-186 -304 -215 -75 -16 -229 -14 -307 4 -229 53 -487 206 -679 402 l-76 77
-24 -24 c-22 -24 -588 -642 -629 -687 l-20 -22 56 -68 c284 -347 671 -572
1117 -648 129 -22 476 -31 611 -15 400 46 698 180 945 425 185 184 297 387
351 635 14 67 18 127 17 285 0 179 -3 211 -26 310 -67 279 -213 506 -452 699
-190 154 -347 246 -871 509 -203 103 -392 203 -419 224 -28 21 -65 60 -84 86
-29 41 -36 59 -40 116 -3 54 -1 75 16 107 29 56 88 109 157 140 56 26 69 28
200 28 122 1 149 -2 210 -23 153 -51 317 -155 478 -302 l79 -72 339 339 c186
186 339 342 339 346 0 4 -36 49 -79 101 -260 309 -616 517 -1025 599 -117 23
-461 33 -585 17z"/>
<path fill="#D58E00" d="M15710 4670 l0 -2190 550 0 550 0 0 2190 0 2190 -550 0 -550 0 0
-2190z"/>
<path fill="#D58E00" d="M11373 4019 c-18 -5 -48 -25 -66 -43 -108 -108 -35 -310 112 -310 94
0 164 76 165 179 1 118 -105 206 -211 174z"/>
<path fill="#D58E00" d="M7420 3724 l0 -276 -42 37 c-195 167 -499 141 -672 -58 -93 -105
-139 -240 -139 -402 0 -165 46 -292 146 -401 103 -113 224 -167 372 -167 120
0 184 25 313 119 l22 16 0 -56 0 -56 140 0 140 0 0 760 0 760 -140 0 -140 0 0
-276z m-155 -399 c60 -29 121 -97 145 -163 30 -78 26 -224 -8 -293 -52 -108
-149 -169 -267 -169 -116 1 -206 57 -263 165 -25 45 -27 60 -27 160 0 92 4
118 22 157 28 60 101 132 156 152 59 22 189 17 242 -9z"/>
<path fill="#D58E00" d="M10720 3775 l0 -205 -70 0 -70 0 0 -115 0 -115 70 0 70 0 0 -430 0
-430 140 0 140 0 0 430 0 430 80 0 80 0 0 115 0 115 -80 0 -80 0 0 205 0 205
-140 0 -140 0 0 -205z"/>
<path fill="#D58E00" d="M5567 3948 c-18 -45 -542 -1400 -553 -1431 l-13 -38 146 3 146 3 57
150 57 150 308 0 308 0 57 -150 57 -150 146 -3 146 -3 -13 38 c-11 31 -535
1386 -553 1431 -4 9 -43 12 -148 12 -105 0 -144 -3 -148 -12z m252 -637 c50
-128 91 -237 91 -242 0 -5 -88 -9 -195 -9 -111 0 -195 4 -195 9 0 5 30 85 66
178 36 92 79 204 96 247 21 53 33 74 38 65 5 -8 49 -119 99 -248z"/>
<path fill="#D58E00" d="M8355 3589 c-200 -33 -356 -185 -412 -399 -22 -86 -22 -245 0 -329
47 -177 181 -324 348 -382 48 -16 87 -22 154 -22 120 0 184 25 313 119 l22 16
0 -56 0 -56 140 0 140 0 0 545 0 545 -140 0 -140 0 0 -61 0 -61 -42 37 c-58
50 -150 92 -228 104 -73 12 -84 12 -155 0z m270 -264 c60 -29 121 -97 145
-163 30 -78 26 -224 -8 -293 -52 -108 -149 -169 -267 -169 -116 1 -206 57
-263 165 -25 45 -27 60 -27 160 0 92 4 118 22 157 28 60 101 132 156 152 59
22 189 17 242 -9z"/>
<path fill="#D58E00" d="M9861 3589 c-68 -12 -164 -57 -218 -104 l-43 -37 0 61 0 61 -140 0
-140 0 0 -745 0 -745 140 0 140 0 0 256 0 256 23 -16 c128 -94 192 -119 312
-119 148 0 269 54 372 167 100 109 146 236 146 401 0 213 -84 387 -236 488
-99 66 -240 96 -356 76z m132 -255 c59 -20 131 -89 160 -152 18 -39 22 -65 22
-157 0 -100 -2 -115 -27 -160 -33 -64 -101 -127 -160 -150 -59 -22 -176 -18
-230 9 -52 25 -112 88 -140 144 -30 63 -38 209 -14 278 31 91 98 162 181 192
45 16 156 14 208 -4z"/>
<path fill="#D58E00" d="M11280 3025 l0 -545 140 0 140 0 0 545 0 545 -140 0 -140 0 0 -545z"/>
</g>
</svg>
