<?xml version="1.0" standalone="no"?>
<!DOCTYPE svg PUBLIC "-//W3C//DTD SVG 20010904//EN"
 "http://www.w3.org/TR/2001/REC-SVG-20010904/DTD/svg10.dtd">
<svg version="1.0" xmlns="http://www.w3.org/2000/svg"
 width="473.000000pt" height="473.000000pt" viewBox="0 0 473.000000 473.000000"
 preserveAspectRatio="xMidYMid meet">

<g transform="translate(0.000000,473.000000) scale(0.100000,-0.100000)"
fill="#000000" stroke="none">
<path fill="#FFAA00" d="M2081 4414 c-448 -61 -914 -300 -1216 -626 -371 -400 -565 -887 -565
-1423 0 -958 639 -1772 1579 -2010 283 -71 679 -73 956 -4 782 195 1349 762
1544 1544 67 269 67 671 0 940 -134 537 -440 970 -894 1268 -180 117 -448 230
-668 281 -197 46 -522 59 -736 30z m1327 -1049 c160 -67 163 -279 5 -359 -29
-14 -132 -16 -1043 -16 -890 0 -1015 2 -1048 15 -158 67 -162 284 -7 356 38
18 89 19 1048 19 887 0 1012 -2 1045 -15z m39 -851 c124 -100 107 -267 -34
-338 -29 -14 -132 -16 -1043 -16 -890 0 -1015 2 -1048 15 -49 21 -81 52 -103
100 -45 97 -4 205 96 258 27 15 135 16 1062 14 l1031 -2 39 -31z m-34 -790
c82 -41 121 -109 115 -196 -5 -67 -39 -118 -104 -155 l-39 -23 -1018 0 c-981
0 -1019 1 -1055 19 -150 77 -148 275 3 354 27 14 140 16 1048 17 918 0 1021
-2 1050 -16z"/>
</g>
</svg>
