<?xml version="1.0" standalone="no"?>
<!DOCTYPE svg PUBLIC "-//W3C//DTD SVG 20010904//EN"
 "http://www.w3.org/TR/2001/REC-SVG-20010904/DTD/svg10.dtd">
<svg version="1.0" xmlns="http://www.w3.org/2000/svg"
 width="512.000000pt" height="512.000000pt" viewBox="0 0 512.000000 512.000000"
 preserveAspectRatio="xMidYMid meet">

<g transform="translate(0.000000,512.000000) scale(0.100000,-0.100000)"
fill="#000000" stroke="none">
<path fill="#FFFFFF" d="M1735 4683 c-16 -2 -74 -13 -129 -24 -612 -127 -1078 -628 -1165
-1253 -14 -99 -14 -313 0 -412 77 -555 454 -1018 980 -1202 177 -62 273 -77
499 -77 162 0 223 4 290 19 235 51 446 145 612 272 l61 47 53 -55 54 -56 0
-89 0 -88 670 -670 670 -670 182 183 183 182 -670 670 -670 670 -95 0 -94 0
-52 51 -52 52 40 51 c129 163 229 379 280 607 20 90 23 131 23 309 0 226 -15
322 -77 499 -184 526 -647 903 -1202 980 -72 10 -323 13 -391 4z m302 -424
c370 -41 687 -263 842 -590 255 -536 35 -1179 -490 -1428 -534 -254 -1176 -36
-1425 484 -259 540 -41 1183 487 1434 134 64 300 105 452 110 21 0 81 -4 134
-10z"/>
</g>
</svg>
